<?xml version="1.0" encoding="utf-8"?>
<!-- Generator: Adobe Illustrator 24.0.1, SVG Export Plug-In . SVG Version: 6.00 Build 0)  -->
<svg version="1.1" id="Layer_1" xmlns="http://www.w3.org/2000/svg" x="0px" y="0px"
     viewBox="0 0 100 100" style="enable-background:new 0 0 100 100;" xml:space="preserve">
<style type="text/css">
	.st0{fill:#FFFFFF;}
</style>
    <g>
	<path class="st0" d="M45.3,86c-8.49-2.65-13.87-8.06-15.55-16.85c-0.11-0.56-0.18-1.12-0.21-1.69c-0.23-3.55,1.29-5.79,4.1-6.05
		c2.8-0.26,4.66,1.69,4.99,5.24c0.59,6.33,5.66,10.9,11.84,10.65c6.02-0.24,10.87-5.29,10.89-11.33c0.02-6.06-4.7-11.35-10.83-11.31
		c-9.62,0.06-19.38-6.67-20.87-18c-1.38-10.51,5.41-19.73,14.9-22.37c0.26-0.07,0.49-0.24,0.72-0.36c0.62-7.85,1.38-9.39,4.63-9.45
		c3.36-0.06,4.34,1.86,4.75,9.47c0.79,0.29,1.65,0.6,2.51,0.92c7.65,2.9,13.09,10.36,13.29,18.23c0.08,3.26-1.65,5.42-4.41,5.5
		c-2.64,0.08-4.41-1.79-4.7-4.96c-0.6-6.61-5.55-11.18-11.85-10.94C43.48,22.95,38.62,28,38.61,34.04
		c-0.02,6.28,4.84,11.14,11.4,11.41c10.72,0.43,18.86,7.6,20.33,17.9c1.36,9.53-4.46,18.63-14.12,22.08
		c-0.53,0.19-1.04,0.41-1.54,0.61c-0.62,3.67,1.47,8.73-4.63,9.43C46.75,95.84,45.71,93.61,45.3,86z"/>
</g>
</svg>
