<?xml version="1.0" encoding="utf-8"?>
<!-- Generator: Adobe Illustrator 24.0.1, SVG Export Plug-In . SVG Version: 6.00 Build 0)  -->
<svg version="1.1" id="Layer_1" xmlns="http://www.w3.org/2000/svg" x="0px" y="0px"
     viewBox="0 0 100 100" style="enable-background:new 0 0 100 100;" xml:space="preserve">
<style type="text/css">
	.st0{fill:#FFFFFF;}
</style>
    <g>
	<path class="st0" d="M59.3,2.61c0,4.76-0.05,9.31,0.01,13.86c0.09,7.24,5.34,12.37,12.62,12.41c3.89,0.02,7.77,0,11.66,0
		c0.6,0,1.2,0,1.9,0c0.04,0.79,0.09,1.39,0.09,1.99c0,19.37,0.01,38.73,0,58.1c0,5.62-2.8,8.41-8.4,8.41c-18.14,0-36.28,0-54.42,0
		c-5.42,0-8.34-2.91-8.34-8.33c0-26.03,0-52.06,0-78.09c0-5.45,2.9-8.36,8.31-8.36c11.48,0,22.95,0,34.43,0
		C57.77,2.61,58.38,2.61,59.3,2.61z M51.18,63c7.4,0,14.8,0,22.21,0c0.56,0,1.11,0.02,1.66-0.03c1.36-0.13,2.18-0.93,2.24-2.26
		c0.07-1.44-0.79-2.28-2.19-2.52c-0.48-0.08-0.98-0.03-1.48-0.03c-14.93,0-29.86,0-44.78,0c-0.55,0-1.13-0.06-1.66,0.07
		c-1.29,0.31-2.25,1.23-1.91,2.49c0.23,0.87,1.26,1.6,2.07,2.2c0.36,0.27,1.08,0.08,1.63,0.08C36.38,63,43.78,63,51.18,63z
		 M51.19,76.59c-6.72,0-13.45,0-20.17,0c-1.17,0-2.35-0.02-3.52,0.03c-1.38,0.06-2.2,0.89-2.29,2.2c-0.1,1.44,0.76,2.29,2.15,2.56
		c0.48,0.09,0.98,0.04,1.48,0.04c14.93,0,29.86,0,44.78-0.01c0.67,0,1.55,0.15,1.97-0.2c0.73-0.6,1.52-1.49,1.65-2.35
		c0.18-1.19-0.72-2.04-1.99-2.23c-0.55-0.08-1.11-0.05-1.66-0.05C66.12,76.59,58.66,76.59,51.19,76.59z M40.76,39.78
		c-4.19,0-8.38-0.03-12.57,0.01c-2.01,0.02-3.23,1.13-2.99,2.67c0.25,1.64,1.41,2.2,2.93,2.2c4.19,0,8.38,0,12.57,0
		s8.38,0.02,12.57-0.01c2.03-0.02,3.17-1.07,2.97-2.68c-0.21-1.69-1.4-2.19-2.91-2.19C49.14,39.78,44.95,39.78,40.76,39.78z"/>
        <path class="st0" d="M81.64,24.03c-3.45,0-6.96,0.11-10.46-0.03c-3.77-0.15-6.67-2.9-6.9-6.67c-0.21-3.37-0.08-6.77-0.09-10.16
		c0-0.22,0.11-0.45,0.15-0.62C70.11,12.39,75.85,18.18,81.64,24.03z"/>
</g>
</svg>
