<?xml version="1.0" encoding="utf-8"?>
<!-- Generator: Adobe Illustrator 24.0.1, SVG Export Plug-In . SVG Version: 6.00 Build 0)  -->
<svg version="1.1" id="Layer_1" xmlns="http://www.w3.org/2000/svg" x="0px" y="0px"
     viewBox="0 0 100 100" style="enable-background:new 0 0 100 100;" xml:space="preserve">
<style type="text/css">
	.st0{fill:#FFFFFF;}
</style>
    <g>
	<path class="st0" d="M66.43,36.7C50.1,36.7,36.75,49.99,36.71,66.3C36.67,82.72,50,96.11,66.4,96.11
		c16.33,0,29.68-13.29,29.72-29.6C96.15,50.09,82.83,36.71,66.43,36.7z M70.08,79.02c-0.48,0.29-0.88,1.05-0.93,1.62
		c-0.13,1.48-0.04,2.97-0.04,4.56c-1.79,0-3.45,0-5.39,0c0-1.36-0.06-2.77,0.02-4.18c0.06-1.07-0.22-1.69-1.25-2.24
		c-2.62-1.4-3.96-3.7-4.18-6.95c1.64,0,3.18-0.05,4.71,0.04c0.32,0.02,0.69,0.54,0.88,0.91c0.7,1.35,1.75,2.02,3.23,1.6
		c1.36-0.39,2.13-1.42,1.95-2.85c-0.2-1.59-1.26-2.31-2.85-2.44c-4.1-0.34-6.96-2.78-7.75-6.55c-0.72-3.41,0.94-6.7,4.28-8.74
		c0.48-0.29,0.88-1.05,0.93-1.62c0.13-1.48,0.04-2.97,0.04-4.62c1.88,0,3.5,0,5.39,0c0,1.43,0.06,2.84-0.02,4.24
		c-0.06,1.07,0.22,1.69,1.25,2.24c2.62,1.4,3.96,3.7,4.17,6.95c-1.64,0-3.18,0.05-4.7-0.04c-0.32-0.02-0.69-0.54-0.88-0.91
		c-0.69-1.35-1.75-2.02-3.23-1.6c-1.36,0.39-2.13,1.42-1.95,2.85c0.2,1.59,1.27,2.31,2.85,2.44c4.11,0.34,6.95,2.77,7.75,6.55
		C75.09,73.69,73.42,76.98,70.08,79.02z"/>
        <path class="st0" d="M14.32,32.72c6.19,3.04,12.9,3.92,21.57,4.04c1.87-0.24,5.59-0.47,9.22-1.21c5.88-1.2,11.43-3.28,15.62-7.87
		c3.9-4.27,3.99-9.55,0.34-14.03c-2.29-2.81-5.25-4.73-8.54-6.11c-10.34-4.31-20.95-4.63-31.7-1.88C15.7,6.97,10.96,9.08,7.25,13
		c-4.5,4.76-4.5,10.62,0.27,15.13C9.49,29.98,11.88,31.53,14.32,32.72z"/>
        <path class="st0" d="M4.09,32.65c-0.73,6.47,0.78,10.1,5.65,13.67c0.48,0.35,0.98,0.7,1.49,1c6.73,4.03,14.15,5.37,21.86,5.55
		c0.39,0.01,0.95-0.24,1.14-0.54c2.21-3.52,4.36-7.07,6.48-10.54C27.79,42.8,15.1,41.4,4.09,32.65z"/>
        <path class="st0" d="M4.08,64.95c-0.59,6.23,0.48,9.51,4.43,12.75c1.7,1.39,3.6,2.62,5.59,3.55c6.92,3.26,14.29,4.27,21.88,3.99
		c0.2-0.01,0.39-0.15,0.41-0.16c-1.47-3.52-2.9-6.93-4.44-10.6C21.94,73.89,12.21,71.88,4.08,64.95z"/>
        <path class="st0" d="M8.17,61.21c6.67,5.56,14.65,7.15,22.93,7.74c0.31-3.63,0.61-7.06,0.92-10.67
		c-10.15-0.61-19.81-2.62-27.9-9.51C3.38,53.72,4.29,57.97,8.17,61.21z"/>
</g>
</svg>
