<?xml version="1.0" encoding="utf-8"?>
<!-- Generator: Adobe Illustrator 24.0.1, SVG Export Plug-In . SVG Version: 6.00 Build 0)  -->
<svg version="1.1" id="Layer_1" xmlns="http://www.w3.org/2000/svg" x="0px" y="0px"
     viewBox="0 0 100 100" style="enable-background:new 0 0 100 100;" xml:space="preserve">
<style type="text/css">
	.st0{fill:#FFFFFF;}
</style>
    <g>
	<path class="st0" d="M86.9,85.89C82.66,66.6,64.53,53.77,45.01,56.26c-18.92,2.41-33.03,18.47-33.34,37.96
		c-0.05,2.98,0.42,3.46,3.37,3.46c11.54,0,23.09,0,34.63,0c11.74,0,23.49,0,35.23,0c2.52,0,3.19-0.66,3.09-3.17
		C87.88,91.6,87.52,88.73,86.9,85.89z"/>
        <path class="st0" d="M49.9,50.06C63.04,50,73.54,39.37,73.49,26.2C73.43,13.05,62.82,2.59,49.62,2.67
		C36.6,2.74,26.04,13.37,26.08,26.38C26.12,39.47,36.84,50.12,49.9,50.06z"/>
</g>
</svg>
