<?xml version="1.0" encoding="utf-8"?>
<!-- Generator: Adobe Illustrator 24.0.1, SVG Export Plug-In . SVG Version: 6.00 Build 0)  -->
<svg version="1.1" id="Layer_1" xmlns="http://www.w3.org/2000/svg" x="0px" y="0px"
     viewBox="0 0 100 100" style="enable-background:new 0 0 100 100;" xml:space="preserve">
<style type="text/css">
	.st0{fill:#FFFFFF;}
</style>
    <g>
	<path class="st0" d="M49.99,35.94c-13.85,0-27.69,0-41.54,0c-0.48,0-0.96-0.02-1.44,0C5.5,36,4.42,35.35,4.04,33.88
		c-0.37-1.41,0.33-2.4,1.53-3.13c5.31-3.25,10.61-6.53,15.91-9.8c8.77-5.4,17.56-10.77,26.3-16.22c1.58-0.99,2.89-0.97,4.47,0.01
		C66.14,13.35,80.08,21.9,94,30.47c0.15,0.09,0.3,0.2,0.46,0.29c1.21,0.71,1.88,1.74,1.5,3.14c-0.39,1.47-1.48,2.05-2.99,2.04
		c-5.03-0.03-10.07-0.01-15.1-0.01C68.57,35.94,59.28,35.94,49.99,35.94z M49.93,25.12c0.6,0,1.19,0.03,1.79,0
		c1.66-0.09,2.78-1.16,2.8-2.65c0.01-1.4-1.05-2.59-2.58-2.7c-1.3-0.09-2.63-0.1-3.93,0c-1.52,0.12-2.57,1.33-2.53,2.74
		c0.04,1.43,1.11,2.49,2.66,2.6C48.74,25.15,49.34,25.11,49.93,25.12z"/>
        <path class="st0" d="M50.12,96c-14.09,0-28.18,0-42.28,0c-3.13,0-3.91-0.78-3.91-3.93c0-1.68-0.01-3.36,0-5.04
		c0.01-2.77,0.87-3.63,3.67-3.63c20.39,0,40.78,0,61.16,0c7.86,0,15.71,0,23.57,0c2.89,0,3.72,0.84,3.73,3.75c0,1.8,0.01,3.6,0,5.4
		c-0.02,2.53-0.94,3.45-3.49,3.45C78.42,96,64.27,96,50.12,96z"/>
        <path class="st0" d="M89.61,41.47c0,0.99,0.08,1.94-0.02,2.87c-0.16,1.44-1.04,2.24-2.49,2.37c-0.59,0.05-1.2,0.02-1.8,0.02
		c-23.43,0-46.87,0-70.3,0c-4.34,0-4.94-0.68-4.52-5.27C36.79,41.47,63.12,41.47,89.61,41.47z"/>
        <path class="st0" d="M24.66,77.91c-3.62,0-7.07,0-10.61,0c0-8.57,0-17.05,0-25.66c3.53,0,7.02,0,10.61,0
		C24.66,60.81,24.66,69.29,24.66,77.91z"/>
        <path class="st0" d="M34.54,52.19c3.58,0,6.98,0,10.52,0c0,8.58,0,17.1,0,25.72c-3.49,0-6.93,0-10.52,0
		C34.54,69.38,34.54,60.87,34.54,52.19z"/>
        <path class="st0" d="M54.93,52.2c3.58,0,6.97,0,10.52,0c0,8.58,0,17.09,0,25.71c-3.48,0-6.93,0-10.52,0
		C54.93,69.39,54.93,60.87,54.93,52.2z"/>
        <path class="st0" d="M85.88,77.91c-3.55,0-7,0-10.55,0c0-8.57,0-17.05,0-25.66c3.49,0,6.94,0,10.55,0
		C85.88,60.73,85.88,69.25,85.88,77.91z"/>
</g>
</svg>
