<?xml version="1.0" encoding="utf-8"?>
<!-- Generator: Adobe Illustrator 24.0.1, SVG Export Plug-In . SVG Version: 6.00 Build 0)  -->
<svg version="1.1" id="Layer_1" xmlns="http://www.w3.org/2000/svg" x="0px" y="0px"
     viewBox="0 0 100 100" style="enable-background:new 0 0 100 100;" xml:space="preserve">
<style type="text/css">
	.st0{fill:#FFFFFF;}
</style>
    <g>
	<path class="st0" d="M50.04,2.03c22.96,0.47,39.8,22.36,33.03,45.03C80,57.3,74.93,66.56,68.87,75.24
		C63.89,82.37,58.4,89.14,53.04,96c-2.08,2.66-3.92,2.59-6.1,0.02C36.72,84,27.37,71.38,20.68,56.99
		c-2.52-5.43-4.52-11.03-5.1-17.06C13.98,23.49,24.9,7.73,40.88,3.6C43.87,2.83,46.98,2.54,50.04,2.03z M49.72,54.3
		c9.67,0.14,17.52-7.48,17.69-17.18c0.17-9.43-7.64-17.45-17.14-17.59c-9.6-0.14-17.5,7.55-17.69,17.23
		C32.4,46.21,40.15,54.15,49.72,54.3z"/>
</g>
</svg>
