<?xml version="1.0" encoding="utf-8"?>
<!-- Generator: Adobe Illustrator 24.0.1, SVG Export Plug-In . SVG Version: 6.00 Build 0)  -->
<svg version="1.1" id="Layer_1" xmlns="http://www.w3.org/2000/svg" x="0px" y="0px"
     viewBox="0 0 100 100" style="enable-background:new 0 0 100 100;" xml:space="preserve">
<style type="text/css">
	.st0{fill:#FFFFFF;}
</style>
    <g>
	<path class="st0" d="M57.09,18.54c1.23,6.92,2.42,13.6,3.6,20.28c2.23,12.62,4.43,25.25,6.7,37.87c0.32,1.76-0.1,3.19-1.21,4.54
		c-4.12,5-8.2,10.04-12.32,15.03c-2.24,2.7-5.34,2.77-7.58,0.09c-4.24-5.07-8.38-10.21-12.58-15.3c-1.09-1.32-1.35-2.79-1.06-4.42
		c3.35-18.81,6.71-37.61,9.99-56.43c0.24-1.39,0.74-1.71,2.04-1.69C48.74,18.58,52.83,18.54,57.09,18.54z"/>
        <path class="st0" d="M35.79,1.68c9.58,0,18.85,0,28.41,0c-0.92,1.82-1.78,3.53-2.65,5.23c-1.12,2.18-2.3,4.32-3.35,6.53
		c-0.48,1.01-1.12,1.31-2.2,1.29c-4.02-0.06-8.04,0-12.06-0.05c-0.56-0.01-1.42-0.18-1.62-0.56C40.11,10.08,38.01,5.96,35.79,1.68z"
        />
</g>
</svg>
