<?xml version="1.0" encoding="utf-8"?>
<!-- Generator: Adobe Illustrator 24.0.1, SVG Export Plug-In . SVG Version: 6.00 Build 0)  -->
<svg version="1.1" id="Layer_1" xmlns="http://www.w3.org/2000/svg" xmlns:xlink="http://www.w3.org/1999/xlink" x="0px"
     y="0px"
     viewBox="0 0 250 250" style="enable-background:new 0 0 250 250;" xml:space="preserve">
<style type="text/css">
	.st0{opacity:0.15;fill-rule:evenodd;clip-rule:evenodd;fill:#2E8BB6;}
	.st1{fill-rule:evenodd;clip-rule:evenodd;fill:#25100C;}
	.st2{fill-rule:evenodd;clip-rule:evenodd;fill:#452B19;}
	.st3{clip-path:url(#SVGID_2_);fill-rule:evenodd;clip-rule:evenodd;fill:#001822;}
	.st4{clip-path:url(#SVGID_4_);fill-rule:evenodd;clip-rule:evenodd;fill:#001822;}
	.st5{clip-path:url(#SVGID_6_);fill-rule:evenodd;clip-rule:evenodd;fill:#DEAC87;}
	.st6{fill-rule:evenodd;clip-rule:evenodd;fill:#DEAC87;}
	.st7{fill-rule:evenodd;clip-rule:evenodd;fill:#FFFFFF;}
	.st8{clip-path:url(#SVGID_8_);fill-rule:evenodd;clip-rule:evenodd;fill:#C1DDEB;}
	.st9{clip-path:url(#SVGID_10_);fill-rule:evenodd;clip-rule:evenodd;fill:#C1DDEB;}
	.st10{fill-rule:evenodd;clip-rule:evenodd;fill:#292558;}
	.st11{clip-path:url(#SVGID_12_);fill-rule:evenodd;clip-rule:evenodd;fill:#E2B69E;}
	.st12{fill-rule:evenodd;clip-rule:evenodd;}
	.st13{fill-rule:evenodd;clip-rule:evenodd;fill:#F2C8AF;}
	.st14{fill-rule:evenodd;clip-rule:evenodd;fill:#FCCEB4;}
	.st15{clip-path:url(#SVGID_14_);fill-rule:evenodd;clip-rule:evenodd;fill:#C1DDEB;}
	.st16{fill-rule:evenodd;clip-rule:evenodd;fill:#102B3C;}
	.st17{fill-rule:evenodd;clip-rule:evenodd;fill:#081C2F;}
	.st18{clip-path:url(#SVGID_16_);fill-rule:evenodd;clip-rule:evenodd;fill:#1C3248;}
	.st19{fill-rule:evenodd;clip-rule:evenodd;fill:#1A83A6;}
	.st20{clip-path:url(#SVGID_18_);fill-rule:evenodd;clip-rule:evenodd;fill:#DEEEF9;}
	.st21{clip-path:url(#SVGID_18_);fill-rule:evenodd;clip-rule:evenodd;fill:#81B0DE;}
	.st22{clip-path:url(#SVGID_20_);fill-rule:evenodd;clip-rule:evenodd;fill:#D57D74;}
	.st23{clip-path:url(#SVGID_22_);fill-rule:evenodd;clip-rule:evenodd;fill:#81B0DE;}
	.st24{clip-path:url(#SVGID_24_);fill-rule:evenodd;clip-rule:evenodd;fill:#DEEEF9;}
	.st25{clip-path:url(#SVGID_26_);fill-rule:evenodd;clip-rule:evenodd;fill:#E2B69E;}
	.st26{clip-path:url(#SVGID_28_);fill-rule:evenodd;clip-rule:evenodd;fill:#F4C6AC;}
	.st27{clip-path:url(#SVGID_28_);fill-rule:evenodd;clip-rule:evenodd;fill:#281515;}
	.st28{clip-path:url(#SVGID_30_);fill-rule:evenodd;clip-rule:evenodd;fill:#81B0DE;}
</style>
    <image style="overflow:visible;" width="450" height="148" xlink:href="3CC4C692.jpg"
           transform="matrix(0.9999 0 0 0.9999 -7942 -7942)">
</image>
    <g>
	<g>
		<ellipse class="st0" cx="60.5" cy="225.1" rx="34.4" ry="19.9"/>

        <ellipse transform="matrix(0.2776 -0.9607 0.9607 0.2776 -71.8456 337.6292)" class="st0" cx="188.6" cy="216.6"
                 rx="19.9" ry="34.4"/>
        <path class="st1" d="M188.5,198.3c0.8,1.5,0.7,3.1,0.5,4.6c-2.8,1.3-5.7,1.9-8.7,1.5v-0.8c-4-0.5-7.6,2.5-11.3,2.8
			c-5.9,0.6-7-1-7.1-2.8C167.9,198.4,179,199.6,188.5,198.3z"/>
        <path class="st2" d="M187.3,193.2c0,0,2.9,3.2,1.2,7.7c-3.3,1.6-6.3,1.5-9.7,1.7c-3.1,1.5-6.6,2.3-10.2,3.1
			c-6.5,1.8-9.8-3.8-2.8-6.3c4.5-1.6,8.8-3.1,13.6-5.2L187.3,193.2z"/>
        <path class="st1"
              d="M210,210.2l1.2,2.3c-1.5,8.9-1.4,22.9-14.3,20.2C187.7,230.5,210.5,210.9,210,210.2L210,210.2z"/>
        <path class="st2" d="M201.1,209.8c-2.1,4-4.3,7.9-5.9,12.1c-1.1,2.8-3.3,8.8,1.2,10.1c2.1,0.9,4.2,0.7,6.2-0.5
			c6.4-2.7,6.1-9.9,7.3-15.5c0.4-2.2,2.7-5.8,0.8-7.6c-3.1-1-6.5-1.1-9.7-0.6C200.3,207.9,200.8,209.2,201.1,209.8L201.1,209.8z"/>
        <g>
			<defs>
				<path id="SVGID_1_" d="M174.4,195.6c4.2,2.3,10.2,2.6,14.9-0.3c-0.4-19.2,0.2-44.9-3.4-66.4c-0.8-6.4-0.5-12.9,0.7-19.2
					c1-5.2,1.5-11.8-1-15.6l-17.8,0.2c-3.7,17.5-1.3,30,2.8,49.7C175.4,160.7,172.2,178.7,174.4,195.6L174.4,195.6z"/>
			</defs>
            <use xlink:href="#SVGID_1_" style="overflow:visible;fill-rule:evenodd;clip-rule:evenodd;fill:#00253F;"/>
            <clipPath id="SVGID_2_">
				<use xlink:href="#SVGID_1_" style="overflow:visible;"/>
			</clipPath>
            <path class="st3" d="M179.2,91.1c-0.9,20.8,1.2,48.9,5,68.3c1.7,18.9-0.2,42.7-0.9,57.7l11.1-15.2c1.9-31.6,0.1-79.9,2.4-111.2
				L179.2,91.1L179.2,91.1z"/>
		</g>
        <g>
			<defs>
				<path id="SVGID_3_" d="M198.8,210.6c5.1,2.1,8.7,2.3,14.3-0.6l-2.1-43.9c-0.7-5-6.5-32.6-3.2-42.5c1-5.1,1.2-11.4-1.8-15
					l-23.9,1c-4.3,14.3,4.3,31.7,7.5,44.9C197,172.6,194.8,192.2,198.8,210.6L198.8,210.6z"/>
			</defs>
            <use xlink:href="#SVGID_3_" style="overflow:visible;fill-rule:evenodd;clip-rule:evenodd;fill:#00253F;"/>
            <clipPath id="SVGID_4_">
				<use xlink:href="#SVGID_3_" style="overflow:visible;"/>
			</clipPath>
            <path class="st4" d="M198.8,106.1c-0.1,19.4,1.8,43.4,6.7,61.2c1.6,18.7,2.2,42.3,1.8,57.4l13.5-8.2c1.3-31.7-2.5-79.9-0.8-111.2
				L198.8,106.1L198.8,106.1z"/>
		</g>
        <g>
			<defs>
				<path id="SVGID_5_" d="M134.6,80.8l-5.4,1.8c-5.2-2.6-13-1.5-15.6,0.6c-1.8,0.2-7.8,0-7.8,0l-0.6,7.8l6.6,1.2
					c2.8,3.3,10.3,2,13.2,0.8l2.4-3.2c1.6-0.5,9-1.7,9.6-1.8L134.6,80.8L134.6,80.8z"/>
			</defs>
            <use xlink:href="#SVGID_5_" style="overflow:visible;fill-rule:evenodd;clip-rule:evenodd;fill:#FFCDA8;"/>
            <clipPath id="SVGID_6_">
				<use xlink:href="#SVGID_5_" style="overflow:visible;"/>
			</clipPath>
            <path class="st5" d="M112.9,91c0,0,5.1-2.6,9.6,2.3l0.6,1.4l1.8-1.8C125,92.8,118.9,86.5,112.9,91L112.9,91z"/>
		</g>
        <path class="st6" d="M118.4,87.4c0,0,2.6,0,3.6-0.7c1.6-1.2,8.4-3.6,10.2-2.9l0.6,3.6c-2,1.3-4,1.8-6,1.8
			C125.8,86.2,120.4,89.3,118.4,87.4L118.4,87.4z"/>
        <polygon class="st7" points="132.7,80.3 131,80.7 133.2,89.5 135.2,89.2 132.7,80.3 		"/>
        <g>
			<defs>
				<path id="SVGID_7_" d="M149,70.6l-17.4,9.6l2.4,9.6c7.8-1.2,14.1-5.8,22.9-10.2c4.9-5.5,7.5-8.7,10.2-13.2
					c2.6-5.2,13.4-18.2,6-24.2c-3.1-2.2-5.9-1-7.4,0.9C161.7,48.3,149,70.6,149,70.6L149,70.6z"/>
			</defs>
            <use xlink:href="#SVGID_7_" style="overflow:visible;fill-rule:evenodd;clip-rule:evenodd;fill:#E1F5FE;"/>
            <clipPath id="SVGID_8_">
				<use xlink:href="#SVGID_7_" style="overflow:visible;"/>
			</clipPath>
            <path class="st8" d="M141.8,98.9l-18-8.4c28.5-5.5,44.4-21.8,54.1-50.5l-4.5,34L141.8,98.9L141.8,98.9z"/>
		</g>
        <g>
			<defs>
				<path id="SVGID_9_" d="M168.7,41.7c6.2-9.3,36-5.1,44.8,11c-9.4,18.7-10.6,36.2-4.2,59.8c-9.1,8.2-41-1.2-45.5-1.9
					c0.3-6.5,1.8-17.1,2.5-25.7c0.2-3.5,0-7.1-0.6-10.6c-1.6-9.5-0.2-17.9,1-25C166.7,46.7,166.9,44,168.7,41.7L168.7,41.7z"/>
			</defs>
            <use xlink:href="#SVGID_9_" style="overflow:visible;fill-rule:evenodd;clip-rule:evenodd;fill:#E1F5FE;"/>
            <clipPath id="SVGID_10_">
				<use xlink:href="#SVGID_9_" style="overflow:visible;"/>
			</clipPath>
            <path class="st9"
                  d="M192.2,124.2c2.6-2.8-1.9-75.1,23.3-73.9c8,1.2,11.3,33.8,11.3,33.8l-5.8,31.3L192.2,124.2L192.2,124.2z"/>
		</g>
        <polygon class="st10" points="180.3,44.9 182.8,45.2 181.8,100.7 176.6,107.2 173,99.8 180.3,44.9 		"/>
        <g>
			<defs>
				<path id="SVGID_11_" d="M195.1,15.9c1.6,4.3,1.3,9.4-1.7,12.8l-0.2,9.6c0,0-8.8,9.2-12.7,0.6l0.2-5.1l-4.3-4.3
					c-0.7-4.8-5-24,8.9-22.1c0.5,0,6.9,2.9,6.9,2.9L195.1,15.9L195.1,15.9z"/>
			</defs>
            <use xlink:href="#SVGID_11_" style="overflow:visible;fill-rule:evenodd;clip-rule:evenodd;fill:#F4C6AC;"/>
            <clipPath id="SVGID_12_">
				<use xlink:href="#SVGID_11_" style="overflow:visible;"/>
			</clipPath>
            <path class="st11" d="M177,36.8l3.9-0.9c0,0,7.5,2.7,12.4-7.1l7.1,1.1l-0.5,10.1c0,0-14.2,6.1-13.9,6.3c0.3,0.3-9-4-9-4L177,36.8
				L177,36.8z"/>
		</g>
        <path class="st12" d="M196.3,11.3c-3.7-8.9-17.8-8.1-22.6,0.7c0.3,2,1.6,2.6,3.4,3.9c2.9-1.2,5.1-2.7,8.4-3
			c6.8-0.9,8.3,7.7,3.4,11.2c1,4.1,0.6,7.4-3.6,7.5c-2-0.3-2.2-5.5-9.2-4.7c-0.2,5.5,0.2,5.8,2.1,8.2c3,0.7,5,1.2,7,0.7
			c5.4-1.2,6.3-6.9,5.1-11.5c0.6-2.5,4.7-6.1,5.7-2.2C197.8,18.8,198.3,15.2,196.3,11.3L196.3,11.3z"/>
        <path class="st13" d="M183.2,31.7c0,0-1.3-3.5-5.1-3C177.5,31.6,181.1,32.8,183.2,31.7z"/>
        <path class="st12" d="M192.9,22.1c2.5-0.1,2.3,2-0.3,4.3"/>
        <polygon class="st10" points="182.1,41.3 184.5,42.3 184.8,46.6 179,44.7 182.1,41.3 		"/>
        <path class="st7" d="M183,41.7l-4.5,3.6c0,0-0.7-5.1,2.2-9.1C180.9,37.6,182.2,40.4,183,41.7L183,41.7z"/>
        <path class="st7" d="M183,41.7l1.3,6c4.1-1.6,8-3.9,11.1-8.2l-2.1-3.7C189.8,38.5,186.7,40.8,183,41.7L183,41.7z"/>
        <path class="st14" d="M205.6,119.6l-2.8,1.9l-3.9,5.1l-5.2-6.6c1.3-1.3,4.4-6.8,5-7.9C201.8,113.9,204.6,116.9,205.6,119.6
			L205.6,119.6z"/>
        <polygon class="st7" points="196.6,114.5 204.5,120.8 203.3,122.4 195.4,116 196.6,114.5 		"/>
        <g>
			<defs>
				<path id="SVGID_13_" d="M195.8,115.2l8.3,6.6c6-6.5,12.4-20.3,17.9-29.5c1.9-2.9,2.5-6.5,1.5-9.8c-2-7.2-5.7-20.2-7.4-26.2
					c-0.8-2.9-2.6-5.5-5-7.4c-2.5-2-5-2.3-7.9,0.2c-4.2,3.1-3.1,7.4-1.8,10.1c0,0,7.5,18.2,10.2,24.9c0.7,1.6,0.5,3.4-0.4,4.8
					C207.1,95.9,198.3,112.7,195.8,115.2L195.8,115.2z"/>
			</defs>
            <use xlink:href="#SVGID_13_" style="overflow:visible;fill-rule:evenodd;clip-rule:evenodd;fill:#E1F5FE;"/>
            <clipPath id="SVGID_14_">
				<use xlink:href="#SVGID_13_" style="overflow:visible;"/>
			</clipPath>
            <path class="st15" d="M202,119.3l15.1-23.1c2.1-2.4,5-6.6,5.6-9.5c0.2-0.8-2.1-1.5-2.1-1.5l0.9-1.8c-0.5-0.6-1.5-1.7-2.9-1.6
				c3.7-5.9-7-37.5-9.6-37.2l28,28.8l-0.4,24.5l-20.1,22.2L202,119.3L202,119.3z"/>
		</g>
        <path class="st16" d="M202.6,127.7C202.6,127.7,202.6,127.7,202.6,127.7C202.6,127.7,202.6,127.7,202.6,127.7
			C202.6,127.7,202.6,127.7,202.6,127.7L202.6,127.7c-4.8,1.7-9.8-5.9-10.6-10.5C194.7,120.1,199,127.9,202.6,127.7z"/>
        <path class="st17" d="M63.9,211.2l-0.3,13l7.9,3.3l0.2-1.7l4.7,2.3c0.2,0.5,15,2.8,14.8,0c-0.2-2.3-11.6-7.5-16.8-11.3l-0.8-5.5
			L63.9,211.2L63.9,211.2z"/>
        <path class="st17" d="M43.8,218.8c0.2-0.8-0.4,15.6-0.4,15.6s1.6,5.6,8.2,5.6c0,0,4.1,0.1,4-3.3c-0.7-4.3-2.1-13.8-2.2-18
			C53.4,218.6,43.6,219.5,43.8,218.8L43.8,218.8z"/>
        <g>
			<defs>
				<path id="SVGID_15_" d="M80.4,102.6c-1.1,26.7-3.3,86.3-3.8,112.5c-5.2,2.5-10.2,2.2-15.2-1.1c-0.4-14.5-1.4-46.5-1.8-60.8
					l-3.6,23l1.6,47.5c-6.3,2.4-11.9,1.8-16.8-1.6c0.1-24.5,1.7-62.8,2.2-87.2c-3.3-8.7-2.2-20.4,0.5-26.7L80.4,102.6z"/>
			</defs>
            <use xlink:href="#SVGID_15_" style="overflow:visible;fill-rule:evenodd;clip-rule:evenodd;fill:#445769;"/>
            <clipPath id="SVGID_16_">
				<use xlink:href="#SVGID_15_" style="overflow:visible;"/>
			</clipPath>
            <path class="st18" d="M66.1,224.3l-1.6-48.9c-0.5-5.9-0.5-11.9,1.2-18.2c1.1-10.6,1.4-20.7,0.6-30.2l-6.7,26.2
				c-1.3,20.5-1.1,50.8,2.3,71.2L66.1,224.3z"/>
            <path class="st18" d="M49.5,230.5c-0.6-18.6-2.2-37.2-2.7-55.8c0.1-13.1,5.8-84.8,4.8-86.1c-9.1-12-38.3-14.1-45.2-0.7
				c-7,13.6,2.7,124.6,17,144.9C28.5,239.9,41.5,234.1,49.5,230.5z"/>
		</g>
        <path class="st19" d="M52.7,40.9c0,0,11.1,9.6,17.4,1.6c8.7,17.5,7.9,50,9.5,69.9c-9.1,3.4-14.3,5-23.1,5l-3-36.9l-7-22.8
			L52.7,40.9L52.7,40.9z"/>
        <path class="st2" d="M50.3,118.5c5.8-0.4,22.8-1.2,29.3-6.5c-0.1-1.6,1.2-2.5,1-3.8c0,0-9.7,3.7-14.7,4.4
			c-5.3,0.7-15.6,1.3-15.6,1.3C50.2,115.3,50.1,117.3,50.3,118.5L50.3,118.5z"/>
        <path class="st7" d="M70.4,111.9c0.1,0,0.2,0.1,0.2,0.2l0.4,4c0.4,0.5-6.8,0.9-6.8,1.1c-0.4,0.2-0.6-4.1-0.7-4.2
			C63.2,112.5,70.3,112.1,70.4,111.9z M70.2,112.5l-6.3,0.7l0.4,3.5l6.3-0.7L70.2,112.5L70.2,112.5z"/>
        <g>
			<defs>
				<path id="SVGID_17_" d="M61.1,123.6c-7.6,2.1-17.5,2-24.8-1.6c0.2-12.6,3-24.4,1.4-37.5c-2.7-10.5-2.8-19.5-1.4-30.8
					c3.3-4.1,11-9.2,16.5-12.9C63,73,64.6,90.5,61.1,123.6L61.1,123.6z"/>
			</defs>
            <use xlink:href="#SVGID_17_" style="overflow:visible;fill-rule:evenodd;clip-rule:evenodd;fill:#A7D5F3;"/>
            <clipPath id="SVGID_18_">
				<use xlink:href="#SVGID_17_" style="overflow:visible;"/>
			</clipPath>
            <path class="st20"
                  d="M65.3,88.7L53.1,69.9l1.4-6.2l-4.6-5.8l-3.8-19.5l8.4-4.8C66.4,62.2,65.7,57.7,65.3,88.7L65.3,88.7z"/>
            <path class="st21" d="M41.2,131c0,0,2.3-37.2,0.7-47.1c-1.1-6.8-7.4-30.2-7.4-30.2c-2.5,10-5.9,30.5-6,40.7
				c0,0-0.8,27.5-0.8,27.5l2.2,9H41.2z"/>
		</g>
        <g>
			<defs>
				<path id="SVGID_19_" d="M104.6,65l3-3.1c0.7-2.1,1.5-4.2,2.6-6.3c0.8-0.6,6.2-6,6.8-4.1c0.8-0.2,6.8-4.2,7.2-3.2
					c0.9,1.3-7.6,5.3-6.4,6c0.7-0.1,8.8-7.3,8.6-4.4c-0.3,1.5-5.7,4.9-6.3,6.1c1-0.4,5.6-5.1,6.7-3.7c1.1,1-6.8,5.9-6.1,6.9
					c1.5,0.1,4.9-4.9,5.3-2.3c-1.8,2.2-4.7,4.7-6.8,5.6c-2.4,2.2-4.8,3.9-7.4,5l-1,0.2l-1.9,1.6L104.6,65L104.6,65z"/>
			</defs>
            <use xlink:href="#SVGID_19_" style="overflow:visible;fill-rule:evenodd;clip-rule:evenodd;fill:#FFCDA8;"/>
            <clipPath id="SVGID_20_">
				<use xlink:href="#SVGID_19_" style="overflow:visible;"/>
			</clipPath>
            <path class="st22" d="M116.2,50c2.2,3.8-2.2,4.4-3.3,6.4c-0.5,0.4,1.2,1.9,0.5,3c0.1,0.1,0.9-0.8,1-1.8c0.1-0.4-1.1-0.8-0.2-1.5
				C116.4,54.1,118.2,52.5,116.2,50L116.2,50z"/>
		</g>
        <polygon class="st7" points="104.9,63.6 105.9,62.9 111.3,68.1 110.2,69.4 104.9,63.6 		"/>
        <g>
			<defs>
				<path id="SVGID_21_" d="M82,42.6c-1.5-3-4.2-3.4-7-4.4c-12.6,6.2,2,37.2,7.9,44.7c1.2,2.4,3.8,4.5,5.7,3.6
					c5-2.4,22.8-17.2,22.8-17.2l-6.7-6.4C84.9,84.6,88.1,56.3,82,42.6L82,42.6z"/>
			</defs>
            <use xlink:href="#SVGID_21_" style="overflow:visible;fill-rule:evenodd;clip-rule:evenodd;fill:#A7D5F3;"/>
            <clipPath id="SVGID_22_">
				<use xlink:href="#SVGID_21_" style="overflow:visible;"/>
			</clipPath>
            <path class="st23" d="M111.4,66.4c-6.8,6.5-14.3,14.5-23.9,16.7c-5.6-2.2-6-15.5-6.2-23.5l-11.7,7.6l6.3,29l16.2,0.3
				c0,0,21.6-14.3,21.1-14c-0.5,0.3,4.6-10.7,4-10.8C116.6,71.7,111.4,66.4,111.4,66.4L111.4,66.4z"/>
		</g>
        <g>
			<defs>
				<path id="SVGID_23_" d="M73,120.5C70.3,96.3,81.1,61.2,62.1,38c22.4-4.3,19.1,10.1,19.2,26.6c-1.2,8.8,1.9,47.6,3.4,53.8
					C82.3,121.5,76.3,121.9,73,120.5L73,120.5z"/>
			</defs>
            <use xlink:href="#SVGID_23_" style="overflow:visible;fill-rule:evenodd;clip-rule:evenodd;fill:#A7D5F3;"/>
            <clipPath id="SVGID_24_">
				<use xlink:href="#SVGID_23_" style="overflow:visible;"/>
			</clipPath>
            <path class="st24" d="M61.5,69.6l-2.3,31l8.6,22.7c2.7-15.4,8.3-46.5,11.2-61.8l-2.6-4.8l0.7-5.9L64.6,32.9l-29.7,9.8L61.5,69.6
				L61.5,69.6z"/>
		</g>
        <g>
			<defs>
				<path id="SVGID_25_" d="M52.2,29.4l0.5,11.5c0,0,4.9,9.8,14.6,3.9l-2.1-16L52.2,29.4L52.2,29.4z"/>
			</defs>
            <use xlink:href="#SVGID_25_" style="overflow:visible;fill-rule:evenodd;clip-rule:evenodd;fill:#F4C6AC;"/>
            <clipPath id="SVGID_26_">
				<use xlink:href="#SVGID_25_" style="overflow:visible;"/>
			</clipPath>
            <path class="st25"
                  d="M59.1,54.1C48.2,28,66.9,48.3,71.2,34.6c1.2-7.3-9.1-12.9-9.1-12.9l-19,6L41.7,42L59.1,54.1L59.1,54.1z"/>
		</g>
        <g>
			<defs>
				<path id="SVGID_27_" d="M51.5,31.3C46.2,22.7,45.3,3.6,61,6.2c2.4,0.2,16.7,5,10.1,8.6c-0.3,6.4-0.7,13.4-1.1,20.5
					c-0.6,2-2.1,3-4.7,2.9C60.1,37.2,54.2,35.6,51.5,31.3L51.5,31.3z"/>
			</defs>
            <use xlink:href="#SVGID_27_" style="overflow:visible;fill-rule:evenodd;clip-rule:evenodd;fill:#F4C6AC;"/>
            <clipPath id="SVGID_28_">
				<use xlink:href="#SVGID_27_" style="overflow:visible;"/>
			</clipPath>
            <path class="st26" d="M65.2,42.9c0,0-5.9-6.7-6.5-10.9c-0.8-5-2.5-14.4,1.9-19.2C65,8,65.2-0.4,65.2-0.4L41.9,3.2l-3.1,36.3
				c0,0,18.3,9.7,17.9,9.7c-0.3,0,8.5-1,8.5-1L65.2,42.9L65.2,42.9z"/>
            <path class="st27" d="M50.9,35.5c1.5-2.1,1.7-4.5,1.7-6.6c0-2.1-2-4.7-1.9-5.9c1.9-4,4.8,1.1,5.6,2.3c0-5.3,1.4-10.9,12.4-10.2
				c12.5-0.9,3.4-12.8,0.2-16.2c0-0.3-22,0.2-22.4-0.2C46.1-1.8,35,12.1,35,12.1l4.9,21.2L50.9,35.5z"/>
		</g>
        <polygon class="st7" points="108.1,82.6 111.1,82.6 111.3,92.7 107,92.7 108.1,82.6 		"/>
        <g>
			<defs>
				<path id="SVGID_29_" d="M109.1,93.1V82c-24.5-0.2-38.7-2.7-55.7-23.5c-5.2-4.4-10.4-11.1-15.9-6.1c-2.1,1.9-2.9,5.6-1.4,8.4
					C58,89.3,74.2,94.6,109.1,93.1z"/>
			</defs>
            <use xlink:href="#SVGID_29_" style="overflow:visible;fill-rule:evenodd;clip-rule:evenodd;fill:#A7D5F3;"/>
            <clipPath id="SVGID_30_">
				<use xlink:href="#SVGID_29_" style="overflow:visible;"/>
			</clipPath>
            <path class="st28" d="M114.7,89.6c-9.8,3.5-41.4-1.6-41.4-1.6l-1.4-2.7l-3.5-0.2c-1-1.5-1.4-1.8,0-3.3
				c-9.3,6.4-32-21.5-38.3-32.7L27,76l29.2,26.8l26.8,3.5c8.4-2.2,26.5-7.9,35-8.6c0.8,0,2.6,1,2.4,0.3
				C119.1,94.9,116.9,92.2,114.7,89.6L114.7,89.6z"/>
		</g>
	</g>
</g>
</svg>
